<svg xmlns="http://www.w3.org/2000/svg" xmlns:xlink="http://www.w3.org/1999/xlink" version="1.1" x="0px" y="0px" viewBox="0 0 100 100" enable-background="new 0 0 100 100" xml:space="preserve" style="max-width:100%" height="100%"><path d="M51.431,4.589c-0.489-0.542-1.186-0.852-1.917-0.852c-0.731,0-1.427,0.309-1.917,0.852  c-0.081,0.09-8.241,9.153-16.283,20.353C20.309,40.268,14.729,52.18,14.729,60.346c0,20.089,15.28,35.825,34.786,35.825  s34.786-15.736,34.786-35.825c0-8.166-5.581-20.077-16.587-35.404C59.672,13.742,51.513,4.679,51.431,4.589z M52.097,90.894V77.916  l16.83-10.348c1.215-0.747,1.594-2.337,0.847-3.552c-0.747-1.215-2.338-1.594-3.552-0.847l-14.125,8.684V52.656l10.02-6.634  c1.189-0.787,1.515-2.389,0.728-3.579c-0.788-1.189-2.389-1.515-3.579-0.728l-7.169,4.746V37.61c0-1.426-1.156-2.582-2.582-2.582  c-1.426,0-2.582,1.156-2.582,2.582v21.755l-10.55-6.984c-1.19-0.787-2.791-0.462-3.579,0.728c-0.787,1.189-0.461,2.791,0.728,3.579  l13.401,8.872v25.336c-15.357-1.313-27.039-14.258-27.039-30.549c0-6.956,5.391-18.144,15.59-32.353  c5.561-7.748,11.181-14.453,14.032-17.756c2.851,3.303,8.471,10.008,14.032,17.756c10.199,14.209,15.59,25.397,15.59,32.353  C79.136,76.637,67.454,89.581,52.097,90.894z" style="" fill="rgb(152, 122, 164)"></path></svg>