<svg xmlns="http://www.w3.org/2000/svg" xmlns:xlink="http://www.w3.org/1999/xlink" viewBox="0 0 86 75" version="1.1" x="0px" y="0px" style="max-width:100%" height="100%"><title style="" fill="rgb(152, 122, 164)">Soap</title><desc style="" fill="rgb(152, 122, 164)">Created with Sketch.</desc><g stroke="rgb(152, 122, 164)" stroke-width="1" fill="none" fill-rule="evenodd" style=""><g transform="translate(-1633.000000, -1154.000000)" fill="rgb(152, 122, 164)" style=""><g transform="translate(1633.000000, 1153.179890)" style="" fill="rgb(152, 122, 164)"><path d="M23.46,42.63 C19.52,39.63 15.46,36.57 13.13,32.25 C12.5379577,31.2603601 12.1788918,30.1489655 12.08,29 C11.96,26 14.45,23.71 16.73,21.83 C16.93,23.11 15.57,24 14.82,25.05 C13.8916569,26.571899 13.8271703,28.4685611 14.65,30.05 C15.4951654,31.6119268 16.6324276,32.9970104 18,34.13 C26.7654701,42.285096 36.6938427,49.0927378 47.46,54.33 C50.61,55.86 54.04,57.33 57.46,56.74 C60.3259222,56.1316239 62.9182429,54.6127134 64.85,52.41 C65.96,51.26 67.38,49.87 68.85,50.41 C69.19,52.21 67.85,53.84 66.49,55.11 C64,57.54 61.17,60 57.69,60.48 C54.69,60.93 51.58,59.86 48.76,58.61 C39.61,54.58 31.46,48.63 23.46,42.63 L23.46,42.63 Z" style="" fill="rgb(152, 122, 164)"></path><path d="M59.34,75.5 C55.42,76.3 51.47,74.59 47.9,72.79 C33.2810314,65.4026007 19.8354603,55.8929763 8,44.57 C5.59432246,42.4447992 3.52123195,39.9705741 1.85,37.23 C0.17145781,34.4642173 -0.359656593,31.1519295 0.37,28 C0.902165073,26.3919284 1.6705739,24.8719618 2.65,23.49 C6.71431592,17.2156798 11.5003279,11.4395742 16.91,6.28 C18.6266343,4.47208009 20.6602713,2.99430384 22.91,1.92 C26.3503151,0.662982114 30.1289753,0.691393093 33.55,2 C36.9257652,3.29751984 40.1216987,5.02150921 43.06,7.13 C54.1,14.4633333 64.81,22.23 75.19,30.43 C78.1112397,32.5385289 80.7028849,35.0695114 82.88,37.94 C84.88,40.94 86.09,44.65 85.23,48.15 C84.5213702,50.4317364 83.365573,52.5495649 81.83,54.38 C77.5287182,60.1147018 72.7409874,65.4678599 67.52,70.38 C65.15,72.61 62.52,74.82 59.36,75.48 L59.34,75.5 Z M59.71,71.31 C62.27,70.67 64.33,68.84 66.23,67 C70.9906293,62.4005444 75.4027851,57.4535819 79.43,52.2 C80.6978437,50.7659249 81.6092277,49.0527971 82.09,47.2 C82.75,43.61 80.28,40.2 77.69,37.67 C74.225254,34.4132385 70.5179021,31.4246248 66.6,28.73 C58.4866667,22.91 50.2866667,17.2 42,11.6 C39.2272038,9.54041136 36.2027405,7.84335139 33,6.55 C29.7403323,5.25845104 26.1146944,5.23703979 22.84,6.49 C20.6533255,7.59485496 18.6768518,9.07382591 17,10.86 L12.16,15.47 C9.62939999,17.6697834 7.40912874,20.2029111 5.56,23 C3.84,25.89 2.93,29.42 3.86,32.65 C4.72,35.65 6.98,37.94 9.21,40.08 C19.8255278,50.2577036 31.6112579,59.1398003 44.32,66.54 C46.9042789,68.1149583 49.6252935,69.4537108 52.45,70.54 C54.7335585,71.5079507 57.2514268,71.7826905 59.69,71.33 L59.71,71.31 Z" style="" fill="rgb(152, 122, 164)"></path><path d="M59.19,35.72 C52.1833333,30.4866667 45.0233333,25.4666667 37.71,20.66 C35.3,19.07 32.71,17.46 29.85,17.25 C28.67,17.16 27.2,17.16 26.68,16.1 C26.3675769,15.0514366 26.9557172,13.9464458 28,13.62 C29.059135,13.4004481 30.1609072,13.5302748 31.14,13.99 C34.784533,15.4828572 38.2441842,17.3922088 41.45,19.68 C47.5166667,23.68 53.4833333,27.8433333 59.35,32.17 C62.4,34.41 65.49,36.76 67.57,39.92 C68.0685041,40.5180099 68.2901714,41.2992962 68.18,42.07 C67.97,42.81 66.85,43.23 66.42,42.6 C64.59,39.81 61.87,37.72 59.19,35.72 L59.19,35.72 Z" style="" fill="rgb(152, 122, 164)"></path></g></g></g></svg>