<svg xmlns="http://www.w3.org/2000/svg" data-name="Layer 1" viewBox="0 0 100 100" x="0px" y="0px" style="max-width:100%" height="100%"><title style="" fill="currentColor">Icons_MinimalFood_Vineta</title><path d="M27.9453,28.1709c6.3242,4.208,13.8115,5.0918,18.9795,5.0918a41.6322,41.6322,0,0,0,7.6318-.6514,2.2488,2.2488,0,0,0,1.7559-2.64c-.123-.6241-3.1416-15.3555-14.373-22.8311C35.6152,2.9326,28.1279,2.05,22.96,2.05a41.6715,41.6715,0,0,0-7.6338.6513,2.2493,2.2493,0,0,0-1.7559,2.64C13.6934,5.9648,16.7129,20.6963,27.9453,28.1709ZM22.96,6.55c4.5468,0,11.0986.7519,16.4863,4.3369,7.2168,4.8037,10.5889,13.5107,11.8418,17.65a42.0225,42.0225,0,0,1-4.3633.2256c-4.5469,0-11.0986-.753-16.4873-4.3379-7.2168-4.8028-10.59-13.51-11.8428-17.6494A42.0651,42.0651,0,0,1,22.96,6.55ZM95.2988,68.5215c.0782-.0977.1524-.1973.2266-.2979.1523-.207.2949-.418.43-.6318,3.7412-5.7842,2.1875-14.6172-4.0615-20.8682a19.7956,19.7956,0,0,0-13.6954-6.1064,13.1338,13.1338,0,0,0-7.2392,2.0693,9.8862,9.8862,0,0,1,1.54-12.0479c.01-.01.0166-.0224.0264-.0322L92.833,10.2978a2.25,2.25,0,0,0-3.1816-3.1816L49.3047,47.4638a21.1906,21.1906,0,0,0-13.3984-4.3964c-8.2217,0-16.7579,3.8222-23.4209,10.4882A35.0119,35.0119,0,0,0,2.2314,73.4687c-.9541,7.3233,1.0215,13.88,5.5567,18.4834.0254.0254.0478.0537.0732.0791l.0059.0049.0224.0244c.0743.0742.1573.1358.2315.209.2432.2315.4883.459.7422.669A20.9849,20.9849,0,0,0,22.98,97.95c8.2217,0,16.7578-3.8233,23.42-10.4883,11.2-11.1973,13.67-27.1856,6.0889-36.8164L65.0918,38.04a14.3155,14.3155,0,0,0,2.6143,7.8819,13.4408,13.4408,0,0,0-2.0108,9.4013,20.4321,20.4321,0,0,0,5.9717,11.625,19.7917,19.7917,0,0,0,13.6943,6.1084h.001A13.045,13.045,0,0,0,92.8857,70.78c.0918-.0625.1807-.1309.2715-.1973.1651-.1211.33-.2412.4873-.3721.2637-.2158.5215-.4453.7676-.6894.01-.0088.02-.0166.0283-.0254l.002-.003.0156-.0136A10.8929,10.8929,0,0,0,95.2988,68.5215ZM8.6367,84.3789a3.6875,3.6875,0,0,1,.7979-3.1445,3.2918,3.2918,0,0,1,2.3584-.8584,7.822,7.822,0,0,1,5.2588,2.4668,8.3128,8.3128,0,0,1,2.4062,4.4716,3.69,3.69,0,0,1-.7969,3.1436,3.2954,3.2954,0,0,1-2.3593.8594,7.4787,7.4787,0,0,1-4.5909-1.8633c-.1621-.1446-.3281-.2842-.4853-.4365-.0557-.0528-.1143-.1006-.169-.1553-.2841-.2852-.5341-.5957-.792-.9A7.8909,7.8909,0,0,1,8.6367,84.3789Zm34.58-.0986c-5.8242,5.8281-13.2012,9.17-20.2373,9.17-.3174,0-.624-.0254-.9365-.0391A8.1042,8.1042,0,0,0,23.9092,86.65a12.7175,12.7175,0,0,0-3.6748-6.99A12.2135,12.2135,0,0,0,11.793,75.876a7.7971,7.7971,0,0,0-5.2578,1.9218,22.2163,22.2163,0,0,1,.1582-3.749A30.5059,30.5059,0,0,1,15.667,56.7373c5.8262-5.8281,13.2031-9.17,20.2393-9.17a16.3868,16.3868,0,0,1,11.9062,4.57C55.4063,59.7353,53.3447,74.1543,43.2168,84.28ZM91.26,66.3125l-.0137.0136c-.1406.14-.291.27-.4424.3965a4.8484,4.8484,0,0,1-2.9551,1.208,1.8344,1.8344,0,0,1-1.3007-.4511c-.84-.8418-.5616-2.9912,1.1806-4.7315a5.1176,5.1176,0,0,1,3.4229-1.63,1.5851,1.5851,0,0,1,1.7539,1.7539,4.75,4.75,0,0,1-1.0713,2.7813A7.0222,7.0222,0,0,1,91.26,66.3125ZM70.1582,54.7431a8.5884,8.5884,0,0,1,2.1436-7.3847,8.1119,8.1119,0,0,1,5.8964-2.2412,15.5019,15.5019,0,0,1,10.5137,4.7881A16.7791,16.7791,0,0,1,92.96,56.8594a6.8374,6.8374,0,0,0-1.8086-.2413,9.5469,9.5469,0,0,0-6.6055,2.9473A8.8856,8.8856,0,0,0,81.832,68a16.8137,16.8137,0,0,1-6.9834-4.2334A15.9174,15.9174,0,0,1,70.1582,54.7431Z" style="" fill="rgb(152, 122, 164)"></path></svg>